<svg width="865" height="319" viewBox="0 0 865 319" fill="none" xmlns="http://www.w3.org/2000/svg">
<path d="M21.6532 194.279C5.88125 170.375 -1.2148 144.333 0.871093 116.251C5.28061 56.889 47.5792 11.4707 104.054 2.71781C154.199 -5.05404 194.776 12.7236 226.316 52.0562C228.414 54.6731 228.514 56.6453 225.857 58.7824C222.614 61.3914 219.35 63.9942 216.306 66.8272C213.251 69.6709 211.093 69.2643 208.67 65.9334C200.648 54.9092 190.933 45.6079 179.296 38.4424C119.777 1.79132 38.3015 32.1815 24.3301 106.19C13.6084 162.985 51.8638 217.254 108.621 225.644C148.904 231.598 181.396 217.063 206.145 184.919C211.871 177.482 210.36 175.429 220.132 182.904C230.311 190.691 231.075 188.767 222.219 200.185C202.624 225.447 177.32 242.185 145.685 247.018C94.0411 254.909 52.6496 236.803 21.6532 194.279Z" fill="black"/>
<path d="M164.819 105.734C158.774 117.834 152.865 129.584 147.049 141.38C145.83 143.851 144.257 145.75 141.823 147.175C115.957 162.318 90.1511 177.562 64.2829 192.701C62.5646 193.706 60.6903 196.226 58.5869 194.428C56.4364 192.59 58.6324 190.41 59.5029 188.597C72.6138 161.277 85.8107 133.998 98.9128 106.674C100.2 103.99 102.016 102.135 104.571 100.638C131.291 84.9787 157.959 69.23 184.659 53.5376C186.133 52.6719 187.755 50.7204 189.498 52.5008C191.169 54.208 189.268 55.9157 188.525 57.4391C180.72 73.4462 172.845 89.4186 164.819 105.734ZM123.247 128.797C124.979 126.821 128.294 125.062 125.159 122.019C123.565 120.472 121.738 122.117 120.291 123.205C118.719 124.386 117.746 126.04 118.45 127.969C119.188 129.991 120.929 129.821 123.247 128.797Z" fill="black"/>
<path d="M551.547 170.35C540.973 165.554 532.392 170.791 532.398 181.882C532.405 194.207 532.623 206.536 533.012 218.855C533.148 223.173 531.818 225.139 527.333 224.434C526.031 224.229 524.672 224.39 523.339 224.379C511.551 224.279 512.868 225.796 512.772 213.559C512.684 202.395 512.804 191.229 512.72 180.065C512.667 172.854 508.633 168.638 501.862 168.433C494.866 168.222 489.386 172.927 489.289 179.793C489.105 192.788 489.076 205.79 489.321 218.783C489.405 223.23 487.871 224.801 483.541 224.426C480.399 224.153 477.206 224.262 474.049 224.442C470.593 224.64 469.447 223.292 469.482 219.784C469.659 202.122 469.605 184.458 469.62 166.795C469.622 164.797 469.631 162.792 469.49 160.8C468.987 153.703 468.963 153.705 476.284 153.684C477.45 153.68 478.622 153.752 479.782 153.664C483.942 153.347 487.956 153.235 488.566 158.874C508.782 148.777 513.398 149.153 528.075 161.91C529.436 161.983 530.102 160.891 530.887 160.094C538.841 152.019 548.457 150.521 559.005 153.115C567.56 155.218 574.31 162.581 575.14 171.514C576.653 187.793 575.885 204.146 576.028 220.469C576.051 223.105 574.894 224.564 572.098 224.366C571.932 224.355 571.765 224.364 571.598 224.373C555.797 225.175 555.793 225.175 555.76 209.44C555.74 199.775 555.698 190.11 555.743 180.445C555.76 176.595 554.809 173.206 551.547 170.35Z" fill="black"/>
<path d="M308.712 70.2823C311.366 84.9276 318.389 92.5153 331.494 95.1826C341.491 97.2174 351.732 92.7168 356.469 83.7172C358.032 80.7474 359.81 79.5743 363.059 79.7494C367.046 79.9641 371.056 79.8735 375.051 79.7649C378.75 79.6644 379.588 81.1998 378.804 84.7203C375.249 100.677 360.055 113.797 342.643 115.272C326.361 116.65 311.484 113.532 299.822 100.848C278.487 77.6439 281.905 28.9181 320.741 17.484C345.684 10.1404 371.495 22.6899 378.927 45.5487C379.476 47.2368 380.378 48.9301 379.685 51.3991C373.152 52.56 366.41 52.1307 359.683 51.7484C358.179 51.6629 357.558 50.2805 357.02 49.037C353.099 39.9765 346.15 35.5753 336.336 35.274C325.637 34.9456 317.699 39.4809 312.386 48.6108C308.558 55.1885 307.813 62.415 308.712 70.2823Z" fill="black"/>
<path d="M376.698 202.368C368.508 218.567 355.239 225.571 337.854 226.477C311.413 227.854 288.658 210.895 287.023 179.245C285.987 159.205 293.332 142.564 311.709 132.543C329.458 122.865 351.11 125.248 366.471 137.937C373.877 144.054 379.189 153.815 379.717 163.037C372.973 163.037 366.242 163.086 359.513 163.001C357.927 162.981 357.536 161.446 356.961 160.246C350.428 146.603 334.563 141.821 321.585 149.961C311.194 156.479 307.722 166.759 308.468 178.396C309.185 189.597 313.381 199.076 324.408 204.137C336.975 209.906 350.068 205.823 356.964 193.74C358.22 191.537 359.714 190.681 362.135 190.739C366.297 190.839 370.468 190.89 374.626 190.732C378.961 190.567 379.918 192.513 378.605 196.295C377.951 198.178 377.443 200.11 376.698 202.368Z" fill="black"/>
<path d="M660.13 198.701C656.648 213.728 648.663 223.729 632.996 225.955C624.106 227.217 616.34 224.257 608.155 218.435C608.155 225.801 608.162 232.192 608.153 238.584C608.135 252.134 608.132 252.134 594.869 252.136C588.001 252.137 587.973 252.137 587.954 245.206C587.878 216.571 587.905 187.935 587.668 159.301C587.631 154.887 589.005 153.127 593.366 153.653C594.843 153.831 596.37 153.798 597.856 153.66C602.706 153.211 607.058 153.398 606.704 160.702C612.193 156.83 616.936 153.365 623.113 152.519C642.58 149.851 657.418 160.984 660.383 180.445C661.3 186.463 661.338 192.348 660.13 198.701ZM606.338 186.835C606.288 200.98 611.881 207.8 623.701 208.008C632.654 208.165 638.626 204.252 640.147 195.937C642.175 184.848 640.608 175.413 632.281 171.196C620.683 165.321 608.801 172.065 606.338 186.835Z" fill="black"/>
<path d="M426.64 152.021C434.462 152.886 441.439 154.66 447.444 159.426C460.055 169.433 464.554 187.757 458.168 203.79C452.34 218.42 437.056 227.411 420.837 225.751C401.627 223.785 389.411 213.421 386.788 196.864C382.495 169.768 398.7 151.308 426.64 152.021ZM440.695 192.04C440.702 189.874 440.802 187.704 440.7 185.544C440.287 176.821 434.456 170.179 426.57 169.362C416.078 168.276 409.043 172.574 406.882 181.981C405.608 187.527 405.673 193.204 407.977 198.651C409.853 203.088 413.08 205.998 417.609 207.448C428.943 211.076 437.832 205.444 440.695 192.04Z" fill="black"/>
<path d="M693.947 152.626C700.023 151.239 705.674 151.81 711.23 152.906C722.265 155.082 730.16 164.044 731.284 175.57C732.742 190.519 731.78 205.528 732.226 220.504C732.308 223.264 731.091 224.443 728.35 224.362C725.354 224.274 722.339 224.17 719.36 224.407C715.53 224.712 713.191 223.538 713.436 219.133C710.809 218.913 709.202 220.571 707.374 221.493C699.174 225.628 690.668 226.952 681.745 224.413C672.942 221.908 666.893 214.47 666.656 206.038C666.36 195.545 670.438 189.419 680.204 185.804C688.431 182.758 697.152 182.693 705.714 181.683C708.108 181.401 711.272 182.286 712.287 179.387C713.427 176.129 711.715 173.177 709.353 170.879C703.89 165.567 693.763 166.244 689.597 172.877C687.17 176.741 684.398 177.415 680.562 177.179C678.571 177.057 676.565 177.176 674.567 177.153C668.846 177.087 668.304 176.349 670.102 171.121C673.944 159.945 682.475 154.712 693.947 152.626ZM702.423 210.218C711.112 206.962 713.516 203.856 712.625 197.242C712.402 195.594 712.021 194.225 710.067 194.269C703.432 194.418 696.794 194.759 690.528 197.205C687.311 198.462 685.434 200.917 685.877 204.574C686.325 208.266 688.881 209.952 692.22 210.613C695.347 211.233 698.499 210.902 702.423 210.218Z" fill="black"/>
<path d="M438.042 112.362C428.362 115.425 418.902 115.602 409.718 112.634C391.812 106.85 382.641 87.8599 387.247 68.2878C391.714 49.311 408.385 39.5732 426.598 41.3211C447.506 43.3277 458.513 53.9883 460.864 74.7893C462.407 88.4438 455.766 105.518 438.042 112.362ZM407.762 68.4416C405.579 73.1916 405.877 78.2705 406.559 83.1416C408.098 94.1407 419.461 100.444 429.824 96.4255C437.581 93.4179 441.167 86.6003 440.78 75.5971C440.472 66.8451 435.636 60.3408 428.146 58.6062C419.746 56.6606 412.512 59.9699 407.762 68.4416Z" fill="black"/>
<path d="M701.997 111.293C688.841 116.065 676.177 116.346 664.133 109.367C650.809 101.646 644.745 84.9213 648.625 67.8721C651.966 53.1884 663.935 43.1115 679.419 41.5533C688.771 40.6123 697.777 41.3508 705.878 46.4082C729.828 61.3602 727.82 97.4256 701.997 111.293ZM667.628 82.7015C668.838 88.2895 671.129 93.0881 676.723 95.6209C689.097 101.224 700.35 94.6739 702.493 80.5847C704.122 69.8674 697.887 59.9773 688.539 58.451C677.663 56.6753 669.553 62.3742 667.643 73.4058C667.167 76.1534 667.507 79.0423 667.628 82.7015Z" fill="black"/>
<path d="M533.372 54.9024C535.411 59.2555 536.107 63.5365 536.138 67.8747C536.235 81.2022 536.075 94.532 536.24 107.858C536.289 111.817 535.185 113.595 530.896 113.458C512.915 112.883 517.336 116.231 516.257 98.9674C515.626 88.8788 517.48 78.6884 515.754 68.5729C514.474 61.0697 510.233 57.9266 501.863 58.2756C494.843 58.5683 489.54 63.1776 489.36 70.0183C489.036 82.3387 488.959 94.6765 489.238 106.997C489.353 112.058 487.769 113.598 482.709 113.505C469.119 113.255 469.09 113.472 469.044 99.7236C468.986 82.5639 469.106 65.402 468.851 48.2455C468.785 43.8216 470.201 42.1151 474.561 42.6125C476.534 42.8377 478.556 42.7034 480.554 42.649C484.702 42.5361 489.061 42.0337 488.447 49.6804C499.009 41.1129 509.62 39.0163 521.124 43.3054C526.64 45.3623 530.854 49.0085 533.372 54.9024Z" fill="black"/>
<path d="M775.517 197.351C770.25 196.276 765.363 195.3 760.486 194.279C749.08 191.892 742.443 185.139 742.105 175.612C741.75 165.586 748.146 157.049 758.557 153.72C767.282 150.93 775.96 151.13 784.458 154.556C791.401 157.356 795.737 162.564 797.837 169.737C798.782 172.968 797.865 174.508 794.374 174.394C791.544 174.301 788.703 174.271 785.877 174.41C782.537 174.575 780.158 174.015 778.127 170.604C775.045 165.425 766.425 165.334 762.323 169.813C759.421 172.982 760.38 176.845 764.923 178.31C769.491 179.782 774.308 180.465 778.984 181.625C781.883 182.343 784.782 183.143 787.575 184.188C794.938 186.943 799.437 192.258 800.166 200.111C800.904 208.063 798.351 214.914 791.688 219.803C780.321 228.141 759.626 227.922 748.315 219.388C743.706 215.911 741.08 211.178 739.853 205.649C739.139 202.437 740.172 200.462 743.927 200.695C746.251 200.839 748.605 200.875 750.922 200.676C755.011 200.323 757.943 201.112 760.206 205.284C762.967 210.373 770.744 212.277 776.235 210.13C779.234 208.957 781.413 206.851 781.545 203.509C781.691 199.807 778.808 198.513 775.517 197.351Z" fill="black"/>
<path d="M819.444 200.766C822.025 200.799 822.417 202.668 823.278 204.014C827.052 209.91 833.775 212.417 840.209 210.195C843.195 209.164 845.586 207.468 845.771 203.899C845.967 200.148 843.419 198.477 840.455 197.582C837.13 196.577 833.644 196.111 830.237 195.365C827.317 194.726 824.384 194.122 821.504 193.331C813.698 191.187 807.887 186.846 806.722 178.317C805.457 169.06 808.533 161.211 816.731 156.562C828.257 150.025 840.377 149.979 852.006 156.4C858.434 159.949 862.118 165.751 862.175 173.847C856.601 174.848 851.285 174.205 846.013 174.355C844.382 174.402 843.901 173.058 843.154 171.944C839.423 166.379 833.525 165.03 828.06 168.428C826.136 169.625 824.501 171.229 824.599 173.57C824.699 175.971 826.588 177.343 828.671 178.193C833.329 180.094 838.367 180.443 843.212 181.59C846.456 182.359 849.664 183.162 852.715 184.568C867.455 191.357 869.251 210.477 856.012 219.922C844.37 228.227 823.513 227.784 812.212 218.947C807.687 215.408 805.086 210.691 803.959 205.089C803.361 202.117 804.347 200.643 807.509 200.709C811.34 200.788 815.173 200.734 819.444 200.766Z" fill="black"/>
<path d="M583.894 58.9286C571.686 58.9235 573.387 58.2571 573.266 69.1102C573.2 75.0999 573.189 81.0924 573.293 87.0812C573.41 93.7788 576.104 96.4576 582.675 96.6815C592.263 97.0083 592.263 97.0083 591.529 106.628C591.022 113.278 591.022 113.384 584.263 113.346C579.132 113.317 573.969 113.985 568.877 112.591C559.149 109.928 553.915 103.617 553.684 93.5827C553.486 84.9434 553.632 76.2967 553.561 67.6538C553.494 59.5939 553.463 59.4831 545.446 58.9545C542.461 58.7576 541.189 57.6643 541.579 54.6615C541.728 53.5153 541.619 52.3349 541.62 51.1701C541.631 43.3466 541.624 43.2676 549.276 42.6524C552.113 42.4243 553.611 41.2679 553.584 38.3639C553.579 37.8648 553.541 37.3595 553.602 36.8674C554.082 32.9932 551.489 27.4002 554.782 25.5756C559.408 23.0116 565.491 24.7297 570.953 24.8338C572.305 24.8596 572.996 25.8422 573.092 27.1517C573.19 28.4774 573.236 29.8091 573.249 31.1387C573.362 42.5964 573.358 42.5965 585.07 42.637C591.98 42.6609 591.98 42.6608 591.975 49.5273C591.975 50.1929 591.965 50.8585 591.956 51.524C591.857 58.8806 591.857 58.8806 583.894 58.9286Z" fill="black"/>
<path d="M751.107 44C751.111 65.4702 751.015 86.4413 751.196 107.41C751.234 111.846 750.065 113.938 745.315 113.433C742.354 113.119 739.309 113.166 736.34 113.449C731.879 113.874 731.006 111.499 731.033 107.753C731.133 93.6068 731.113 79.4601 731.123 65.3136C731.134 50.8451 731.104 36.3765 731.136 21.9081C731.152 14.7824 731.198 14.6759 738.427 14.8097C752.643 15.073 751.001 12.3778 751.105 27.5227C751.141 32.8482 751.108 38.1743 751.107 44Z" fill="black"/>
<path d="M645.222 52.9012C645.004 55.6469 645.753 58.0242 644.479 60.3423C642.18 60.3423 639.88 60.2943 637.583 60.3507C628.154 60.5822 621.183 67.3651 621.052 76.7885C620.907 87.2804 620.951 97.7786 621.148 108.27C621.221 112.162 619.816 113.429 615.921 113.471C601.028 113.632 601.034 113.75 601.003 98.9119C600.967 82.254 601.117 65.5919 600.76 48.9407C600.649 43.727 602.437 41.9719 607.348 42.6195C608.822 42.8139 610.357 42.7888 611.839 42.6314C616.49 42.1376 620.309 42.6414 619.677 48.6049C621.676 49.4778 622.442 48.155 623.348 47.2749C625.414 45.2692 627.802 43.7943 630.485 42.7875C634.817 41.1615 639.734 40.1427 643.599 42.2284C647.126 44.1315 644.588 48.9586 645.222 52.9012Z" fill="black"/>
<path d="M543.64 283.285C538.823 283.075 536.918 284.977 537.254 289.573C537.569 293.875 537.27 298.22 537.305 302.545C537.325 304.946 536.462 306.272 533.829 306.283C531.254 306.293 529.676 305.555 529.711 302.643C529.768 297.986 529.63 293.326 529.72 288.669C529.771 286.081 529.321 284.007 526.344 283.495C524.298 283.143 523.708 281.82 523.732 279.909C523.756 277.907 524.574 276.778 526.642 276.666C528.996 276.538 529.368 274.926 529.809 272.956C531.186 266.802 534.54 264.105 540.565 263.874C542.532 263.799 544.348 264.006 544.612 266.472C544.832 268.525 544.905 270.578 542.076 270.993C540.192 271.27 538.168 271.739 538.41 274.166C538.65 276.57 540.875 276.364 542.649 276.728C549.936 278.224 550.411 275.749 550.976 270.115C554.505 268.942 557.844 267.99 558.243 273.632C558.429 276.253 560.221 276.795 562.403 276.924C564.407 277.042 566.542 276.959 566.509 279.978C566.482 282.548 565.166 283.407 562.781 283.516C559.345 283.674 557.645 285.516 558.044 289.051C558.48 292.92 556.654 297.997 562.795 298.966C565.636 299.414 566.417 300.817 566.127 303.378C565.817 306.125 563.849 306.208 561.752 306.299C554.054 306.632 550.696 303.496 550.638 295.827C550.619 293.332 550.539 290.833 550.633 288.341C550.818 283.484 548.359 282.177 543.64 283.285Z" fill="black"/>
<path d="M409.709 305.11C399.559 308.389 390.631 305.953 385.666 298.797C380.431 291.25 380.408 279.889 385.728 272.984C391.239 265.833 398.748 263.896 407.133 265.878C415.632 267.888 420.332 273.874 421.772 282.357C423.177 290.627 420.374 297.402 413.919 302.663C412.772 303.597 411.359 304.204 409.709 305.11ZM399.311 272.72C397.964 273.354 396.508 273.827 395.29 274.651C390.592 277.829 388.607 285.164 390.66 291.322C392.387 296.499 396.529 299.266 402.14 298.99C409.18 298.644 413.908 292.88 413.719 284.872C413.536 277.089 408.454 272.5 399.311 272.72Z" fill="black"/>
<path d="M292.043 305.9C290.581 304.659 290.677 303.283 290.675 301.97C290.655 290.997 290.692 280.023 290.64 269.05C290.627 266.391 291.082 264.611 294.402 264.617C297.595 264.622 298.47 266.163 298.306 268.937C298.267 269.599 298.314 270.267 298.322 270.932C298.393 277.379 298.393 277.379 304.531 276.711C310.952 276.012 316.479 278.457 319.007 283.363C322.299 289.753 321.615 295.98 317.38 301.646C313.598 306.706 307.996 307.632 302.566 305.747C298.824 304.448 295.816 307.423 292.043 305.9ZM299.473 295.793C299.792 296.175 300.078 296.593 300.436 296.934C303.304 299.665 306.415 300.506 309.783 297.874C313.351 295.087 313.556 291.245 312.134 287.497C310.779 283.927 307.527 282.687 303.923 283.542C299.738 284.534 298.119 287.675 298.347 291.8C298.41 292.926 298.832 294.032 299.473 295.793Z" fill="black"/>
<path d="M485.345 296.961C485.332 299.284 485.297 301.115 485.316 302.945C485.339 305.215 484.282 306.229 481.981 306.269C479.552 306.31 478.13 305.412 478.097 302.874C478.041 298.546 478.013 294.218 478.003 289.891C477.995 286.131 476.964 283.14 472.474 283.281C468.208 283.416 466.227 285.916 466.207 290.088C466.189 294.083 466.142 298.079 466.174 302.073C466.197 304.916 465.1 306.364 462.024 306.295C458.923 306.225 458.605 304.346 458.609 301.974C458.625 290.822 458.658 279.67 458.589 268.519C458.572 265.805 459.536 264.613 462.37 264.639C465.215 264.664 466.259 266.001 466.184 268.618C466.179 268.784 466.186 268.951 466.195 269.117C466.622 276.795 466.622 276.795 474.153 276.663C481.566 276.532 485.224 280.058 485.33 287.48C485.372 290.476 485.343 293.473 485.345 296.961Z" fill="black"/>
<path d="M338.375 290.877C339.726 287.854 340.908 285.109 342.038 282.343C344.227 276.987 344.422 276.872 350.657 277.819C351.785 279.536 350.543 280.999 349.976 282.443C345.967 292.648 341.615 302.727 337.922 313.044C336.08 318.189 333.236 319.304 328.62 317.656C327.943 316.317 328.299 315.096 328.932 314.189C333.299 307.928 332.037 301.92 328.821 295.594C326.056 290.155 324.004 284.353 321.646 278.732C327.485 275.961 328.799 276.381 331.059 281.557C332.256 284.297 333.329 287.092 334.544 289.823C335.262 291.438 336.137 293.011 338.375 290.877Z" fill="black"/>
<path d="M583.979 291.364C587.265 289.21 587.721 285.735 588.721 282.657C590.203 278.094 592.635 275.866 597.635 277.871C598.628 279.143 597.612 280.348 597.165 281.488C592.982 292.157 588.556 302.734 584.58 313.478C582.754 318.414 579.851 319.222 575.285 317.494C575.194 313.868 577.334 311.121 578.437 308.075C579.289 305.723 579.279 303.744 578.255 301.428C574.912 293.866 571.796 286.203 568.603 278.602C574.337 275.926 575.797 276.552 578.126 281.704C579.655 285.086 579.986 289.202 583.979 291.364Z" fill="black"/>
<path d="M520.309 280.233C520.328 287.876 520.29 295.043 520.346 302.208C520.365 304.743 519.74 306.299 516.743 306.32C513.651 306.341 512.638 304.94 512.67 302.066C512.746 295.264 512.695 288.461 512.695 280.666C510.304 282.578 508.53 283.347 506.345 283.475C500.93 283.792 498.417 286.701 498.307 292.24C498.238 295.738 498.228 299.239 498.278 302.738C498.314 305.291 497.107 306.313 494.615 306.286C492.283 306.26 490.715 305.587 490.716 302.929C490.717 295.43 490.659 287.931 490.708 280.432C490.734 276.484 493.742 276.713 496.052 277.442C498.636 278.258 500.746 277.814 503.217 277.153C507.947 275.888 512.845 278.028 517.711 276.868C519.49 276.444 520.258 278.037 520.309 280.233Z" fill="black"/>
<path d="M434.473 302.496C434.353 294.79 434.208 287.487 434.127 280.183C434.05 273.337 434.08 273.339 427.35 272.84C426.523 272.779 425.699 272.624 424.872 272.603C422.554 272.545 421.7 271.377 421.797 269.098C421.891 266.901 422.672 265.672 425.03 265.679C433.998 265.704 442.967 265.699 451.935 265.682C454.661 265.677 455.171 267.327 455.176 269.615C455.183 272.108 453.902 272.75 451.686 272.558C450.202 272.428 448.698 272.449 447.207 272.505C443.784 272.632 442.193 274.281 442.256 277.873C442.399 286.009 442.288 294.149 442.305 302.287C442.309 304.492 441.936 306.273 439.136 306.276C436.717 306.279 434.241 306.499 434.473 302.496Z" fill="black"/>
<path d="M376.241 284.001C376.237 290.314 376.149 296.13 376.261 301.942C376.322 305.118 375.068 306.406 371.839 306.355C368.788 306.306 367.77 304.974 367.789 302.089C367.86 291.459 367.865 280.827 367.785 270.196C367.762 267.209 368.537 265.583 371.968 265.596C375.246 265.609 376.388 266.894 376.282 270.047C376.132 274.527 376.242 279.016 376.241 284.001Z" fill="black"/>
<path d="M516.05 263.711C519.726 263.415 520.487 265.205 520.324 268.001C520.212 269.917 519.667 271.29 517.503 271.265C515.763 271.244 513.42 271.901 512.99 269.415C512.602 267.171 511.585 264.163 516.05 263.711Z" fill="black"/>
</svg>
